<svg width="35" height="35" viewBox="0 0 35 35" fill="none" xmlns="http://www.w3.org/2000/svg">
<path fill-rule="evenodd" clip-rule="evenodd" d="M0 17.1374C0 7.67267 7.67267 0 17.1374 0C26.6021 0 34.2748 7.67267 34.2748 17.1374C34.2748 26.6021 26.6021 34.2748 17.1374 34.2748C7.67267 34.2748 0 26.6021 0 17.1374ZM17.1374 2.85623C9.25013 2.85623 2.85623 9.25013 2.85623 17.1374C2.85623 25.0247 9.25013 31.4186 17.1374 31.4186C25.0247 31.4186 31.4186 25.0247 31.4186 17.1374C31.4186 9.25013 25.0247 2.85623 17.1374 2.85623Z" fill="#9360FF"/>
<path fill-rule="evenodd" clip-rule="evenodd" d="M17.4232 8.56885C18.212 8.56885 18.8514 9.20824 18.8514 9.99696V24.5638C18.8514 25.3525 18.212 25.9919 17.4232 25.9919C16.6345 25.9919 15.9951 25.3525 15.9951 24.5638V9.99696C15.9951 9.20824 16.6345 8.56885 17.4232 8.56885Z" fill="#9360FF"/>
<path fill-rule="evenodd" clip-rule="evenodd" d="M26.2773 16.8519C26.2773 17.6407 25.638 18.2801 24.8492 18.2801L10.2824 18.2801C9.49371 18.2801 8.85432 17.6407 8.85432 16.8519C8.85432 16.0632 9.49371 15.4238 10.2824 15.4238L24.8492 15.4238C25.638 15.4238 26.2773 16.0632 26.2773 16.8519Z" fill="#9360FF"/>
</svg>
