<svg xmlns="http://www.w3.org/2000/svg" viewBox="0 0 24 24" height="24" width="24" class="ui-icon__svg">
                  <path fill="#4eb8a5" fill-rule="evenodd" d="M6.071 4.003c-.177 0-.349.02-.511.057a4.344 4.344 0 00-.853-1.267C4.138 2.224 3.242 2 2 2v2c.758 0 1.195.11 1.293.207C3.67 4.585 4 5.353 4 6l.01.141.98 6.86C3.5 13 2 14.5 2 16.5s1.5 3.5 2.943 3.498h.227a3.001 3.001 0 005.66.002h2.34a3.001 3.001 0 100-2h-2.34a3.001 3.001 0 00-5.66 0H5c-.5 0-1-.5-1-1.5s.5-1.5 1.05-1.501h1.974l.014.001h10.079l.148-.047a2.625 2.625 0 001.652-1.55l.448-.887 1.053-2.092c.845-1.683 1.377-2.752 1.495-3.015.604-1.349-.62-2.387-1.872-2.409L6.07 4.003zM16.77 13H7.113a.17.17 0 01-.123-.14L6.01 6l13.883.995c-.242.495-.684 1.38-1.262 2.531l-.015.029c-.33.657-.683 1.36-1.037 2.06l-.471.934-.05.113a.625.625 0 01-.289.338zM16 20a1 1 0 100-2 1 1 0 000 2zm-7-1a1 1 0 11-2 0 1 1 0 012 0z" clip-rule="evenodd"></path>
                </svg>