<svg width="29" height="29" viewBox="0 0 29 29" fill="none" xmlns="http://www.w3.org/2000/svg">
<path d="M10.2342 10.2342C10.5881 9.88028 11.1619 9.88028 11.5158 10.2342L14.5 13.2184L17.4842 10.2342C17.8381 9.88029 18.4119 9.88029 18.7659 10.2342C19.1198 10.5881 19.1198 11.1619 18.7659 11.5158L15.7817 14.5L18.7658 17.4842C19.1198 17.8381 19.1198 18.4119 18.7658 18.7658C18.4119 19.1197 17.8381 19.1197 17.4842 18.7658L14.5 15.7817L11.5159 18.7658C11.1619 19.1198 10.5881 19.1198 10.2342 18.7658C9.88031 18.4119 9.88031 17.8381 10.2342 17.4842L13.2184 14.5L10.2342 11.5158C9.8803 11.1619 9.8803 10.5881 10.2342 10.2342Z" fill="white"/>
<path fill-rule="evenodd" clip-rule="evenodd" d="M8.84108 4.55394C12.5719 4.13697 16.4281 4.13697 20.1589 4.55394C22.3658 4.80059 24.148 6.53895 24.4076 8.75861C24.8537 12.5732 24.8537 16.4268 24.4076 20.2414C24.148 22.4611 22.3658 24.1995 20.1589 24.4461C16.4281 24.8631 12.5719 24.8631 8.84108 24.4461C6.6342 24.1995 4.85204 22.4611 4.59243 20.2414C4.14627 16.4268 4.14627 12.5732 4.59243 8.75861C4.85204 6.53895 6.63421 4.80059 8.84108 4.55394ZM19.9576 6.35522C16.3606 5.95321 12.6394 5.95321 9.0424 6.35522C7.65955 6.50978 6.55265 7.6012 6.39266 8.96916C5.96286 12.6439 5.96286 16.3562 6.39266 20.0309C6.55265 21.3989 7.65955 22.4903 9.0424 22.6448C12.6394 23.0469 16.3606 23.0469 19.9576 22.6448C21.3405 22.4903 22.4474 21.3989 22.6074 20.0309C23.0372 16.3562 23.0372 12.6439 22.6074 8.96916C22.4474 7.6012 21.3405 6.50978 19.9576 6.35522Z" fill="white"/>
</svg>
