<svg width="101" height="101" viewBox="0 0 101 101" fill="none" xmlns="http://www.w3.org/2000/svg">
<path fill-rule="evenodd" clip-rule="evenodd" d="M38.0517 9.24135C54.049 9.24135 67.0173 22.2097 67.0173 38.2069C67.0173 54.2041 54.049 67.1724 38.0517 67.1724C34.5749 67.1724 31.2499 66.5616 28.1723 65.4451C26.8157 64.9529 25.3072 64.8429 23.8358 65.2043C19.8837 66.175 15.8491 66.7908 11.7803 67.0424C13.3103 63.0111 13.839 58.6531 13.3011 54.3481C13.1814 53.3904 12.8682 52.5507 12.4962 51.8557C10.3212 47.7932 9.08623 43.1504 9.08623 38.2069C9.08623 22.2097 22.0545 9.24135 38.0517 9.24135ZM75.2931 38.2069C75.2931 17.639 58.6196 0.965485 38.0517 0.965485C17.4839 0.965485 0.810364 17.639 0.810364 38.2069C0.810364 44.4829 2.36614 50.4076 5.11636 55.6044C5.54562 59.4356 4.75018 63.3166 2.82691 66.6823L2.65719 66.9793C0.500844 70.7529 3.2256 75.4483 7.57189 75.4483C13.6458 75.4483 19.6848 74.7246 25.5632 73.3014C29.4724 74.6926 33.6782 75.4483 38.0517 75.4483C58.6196 75.4483 75.2931 58.7747 75.2931 38.2069ZM85.0388 35.137C83.292 36.6106 83.0705 39.2212 84.544 40.968C89.1018 46.371 91.8449 53.3425 91.8449 60.9655C91.8449 66.2728 90.5161 71.2573 88.1764 75.617C87.8013 76.316 87.49 77.1547 87.3696 78.1069C86.7781 82.7855 87.3834 87.5249 89.1104 91.8852C84.6153 91.6322 80.1577 90.9625 75.7946 89.8871C74.3219 89.524 72.8094 89.6334 71.4481 90.1301C68.1355 91.3387 64.5548 92 60.8104 92C53.1874 92 46.2158 89.2569 40.8129 84.6992C39.066 83.2256 36.4554 83.4472 34.9819 85.194C33.5084 86.9408 33.7299 89.5514 35.4767 91.025C42.3166 96.7948 51.1623 100.276 60.8104 100.276C65.4544 100.276 69.9187 99.4688 74.0653 97.9839C80.3148 99.5032 86.7363 100.276 93.1951 100.276C97.6144 100.276 100.385 95.5017 98.1925 91.6646L98.1924 91.6646L98.0121 91.349C95.9332 87.7109 95.0782 83.5136 95.5526 79.3728C98.4698 73.8771 100.121 67.6081 100.121 60.9655C100.121 51.3175 96.6397 42.4717 90.8698 35.6318C89.3963 33.885 86.7857 33.6635 85.0388 35.137ZM21.5 42.3448C23.7853 42.3448 25.638 40.4922 25.638 38.2069C25.638 35.9216 23.7853 34.0689 21.5 34.0689C19.2147 34.0689 17.3621 35.9216 17.3621 38.2069C17.3621 40.4922 19.2147 42.3448 21.5 42.3448ZM42.1897 38.2069C42.1897 40.4922 40.3371 42.3448 38.0517 42.3448C35.7664 42.3448 33.9138 40.4922 33.9138 38.2069C33.9138 35.9216 35.7664 34.0689 38.0517 34.0689C40.3371 34.0689 42.1897 35.9216 42.1897 38.2069ZM54.6035 42.3448C56.8888 42.3448 58.7414 40.4922 58.7414 38.2069C58.7414 35.9216 56.8888 34.0689 54.6035 34.0689C52.3182 34.0689 50.4655 35.9216 50.4655 38.2069C50.4655 40.4922 52.3182 42.3448 54.6035 42.3448Z" fill="white"/>
</svg>
