<svg width="24" height="24" viewBox="0 0 24 24" fill="none" xmlns="http://www.w3.org/2000/svg">
<path fill-rule="evenodd" clip-rule="evenodd" d="M5 1C3.89543 1 3 1.89543 3 3V21C3 22.1046 3.89544 23 5 23H11C11.5523 23 12 22.5523 12 22C12 21.4477 11.5523 21 11 21H5V3H14V7C14 7.55228 14.4477 8 15 8H19V11.5C19 12.0523 19.4477 12.5 20 12.5C20.5523 12.5 21 12.0523 21 11.5V7C21 6.74138 20.9018 6.5057 20.7407 6.32817L16.2433 1.33104C16.0537 1.12032 15.7835 1 15.5 1H5ZM16 4.0504V6H17.7546L16 4.0504Z" fill="black" fill-opacity="0.85"/>
<path d="M21 15C21 15.5523 20.5523 16 20 16H18V22C18 22.5523 17.5523 23 17 23C16.4477 23 16 22.5523 16 22V16H14C13.4477 16 13 15.5523 13 15C13 14.4477 13.4477 14 14 14H20C20.5523 14 21 14.4477 21 15Z" fill="black" fill-opacity="0.85"/>
</svg>
