<svg xmlns="http://www.w3.org/2000/svg" viewBox="0 0 24 24" height="24" width="24" class="ui-icon__svg">
                                                    <path fill="#fff" d="M8.5 19c.33-.328.66-.613.966-.88.856-.742 1.534-1.33 1.534-2.245 0-1.26-1.707-2.087-2.5-.51-.793-1.577-2.5-.75-2.5.51 0 .915.678 1.503 1.534 2.245.307.266.636.552.966.88z">

                                                    </path>
                                                    <path fill="#fff" fill-rule="evenodd" d="M20.491 2a2 2 0 011.923 1.45l1.135 4.33A3.5 3.5 0 0122 12.663v8.338h1.001a1 1 0 110 2H1a1 1 0 110-2h1v-8.337A3.5 3.5 0 01.45 7.781l1.136-4.33A2 2 0 013.509 2H20.49zM2.651 7H21.35l-.858-3H3.51L2.65 7zm-.566 2a1.5 1.5 0 102.83 0h-2.83zm5.5 0a1.5 1.5 0 102.83 0h-2.83zm6 0a1.5 1.5 0 102.83 0h-2.83zm5.5 0a1.5 1.5 0 102.83 0h-2.83zM4 12.965V21h8v-2.5a3 3 0 116 0V21h2v-8.035a3.497 3.497 0 01-2.25-1.3 3.498 3.498 0 01-5.75-.361 3.498 3.498 0 01-5.75.361 3.497 3.497 0 01-2.25 1.3zM16 21v-2.5a1 1 0 10-2 0V21h2z" clip-rule="evenodd">

                                                    </path>
                                                </svg>