<svg xmlns="http://www.w3.org/2000/svg" viewBox="0 0 24 24" height="24" width="24" class="ui-icon__svg">
                                                    <path fill="#ec376f" fill-rule="evenodd" d="M11.99 3.387a6.307 6.307 0 00-1.068-.663C9.832 2.188 8.85 2 7.455 2 3.716 2 1 5.078 1 9.075c0 3.02 1.694 5.935 4.849 8.755 1.656 1.48 3.77 2.945 5.285 3.724L12 22l.866-.446c1.515-.78 3.63-2.244 5.285-3.724C21.306 15.01 23 12.094 23 9.075 23 5.12 20.258 2.015 16.553 2c-1.447 0-2.38.171-3.45.692a6.172 6.172 0 00-1.113.695zM16.549 4c-1.235 0-1.848.138-2.572.49-.27.131-.52.288-.753.47l-1.223.96-1.231-.948a4.305 4.305 0 00-.73-.454C9.285 4.148 8.62 4 7.455 4 5.008 4 3 5.986 3 9.075c0 2.213 1.235 4.63 4.182 7.264 1.53 1.367 3.477 2.713 4.818 3.412 1.34-.699 3.288-2.045 4.818-3.412C19.765 13.705 21 11.289 21 9.075 21 6.034 18.97 4.012 16.549 4z" clip-rule="evenodd">

                                                    </path>
                                                </svg>