<svg xmlns="http://www.w3.org/2000/svg" viewBox="0 0 24 24" height="24" width="24" class="ui-icon__svg">
                                                    <path fill="#fff" fill-rule="evenodd" d="M13.103 2.692c1.07-.52 2.003-.692 3.45-.692C20.258 2.015 23 5.12 23 9.075c0 3.02-1.694 5.935-4.849 8.755-1.656 1.48-3.77 2.945-5.285 3.724L12 22l-.866-.446c-1.515-.78-3.63-2.244-5.285-3.724C2.694 15.01 1 12.094 1 9.075 1 5.078 3.716 2 7.455 2c1.395 0 2.376.188 3.467.724.38.186.736.408 1.068.663.345-.27.717-.503 1.113-.695z" clip-rule="evenodd">

                                                    </path>
                                                </svg>