<svg xmlns="http://www.w3.org/2000/svg" viewBox="0 0 24 24" height="24" width="24" class="icon-svg">
<path fill="#4eb8a5" fill-rule="evenodd" d="M6.14 18.831A8.965 8.965 0 0012 21a8.965 8.965 0 005.86-2.169l-.004-.009a4.327 4.327 0 00-.813-1.115c-.8-.8-2.29-1.707-5.043-1.707s-4.243.907-5.043 1.707a4.328 4.328 0 00-.813 1.115l-.004.01zm-1.418-1.536a9 9 0 1114.556 0 6.474 6.474 0 00-.82-1.002c-.857-.856-2.126-1.658-3.963-2.047a4.5 4.5 0 10-4.99 0c-1.837.389-3.106 1.19-3.962 2.047a6.472 6.472 0 00-.821 1.002zM1 12c0 6.075 4.925 11 11 11s11-4.925 11-11S18.075 1 12 1 1 5.925 1 12zm11-4a2.5 2.5 0 100 5 2.5 2.5 0 000-5z" clip-rule="evenodd"></path></svg>