<svg width="32" height="29" viewBox="0 0 32 29" fill="none" xmlns="http://www.w3.org/2000/svg">
<path fill-rule="evenodd" clip-rule="evenodd" d="M27.6664 14.2127C27.6588 14.7676 27.3694 15.4086 26.6874 15.7544L26.2723 15.965C19.9387 19.1769 13.3551 21.7953 6.60115 23.7875C5.70909 24.0506 4.95218 23.617 4.60155 23.0755C4.25855 22.5457 4.2126 21.8169 4.65047 21.1998L8.70399 15.4875C9.15199 14.8561 9.15312 13.9993 8.74103 13.408L4.841 7.81163C4.40142 7.18085 4.48643 6.44891 4.82665 5.93505C5.16835 5.41894 5.90495 4.95816 6.804 5.19907C13.5097 6.99592 20.0286 9.42461 26.2816 12.4551L26.6912 12.6536C27.3999 12.9971 27.6739 13.6592 27.6664 14.2127ZM25.6491 14.204L25.3384 14.0534C19.3416 11.1471 13.0982 8.80616 6.68065 7.0571L10.432 12.4402C11.273 13.647 11.2406 15.2638 10.3862 16.4678L6.53107 21.9006C12.9663 19.9667 19.2452 17.4516 25.2956 14.3833L25.6491 14.204Z" fill="#969696" fill-opacity="0.75"/>
</svg>
